{"title":"Revolution S02E08 - 720p x264 [MKV,AC3,5.1] Ehhhh","uid":9193468,"size":444842748,"categoryP":"video","categoryS":"hd___tv_shows","magnet":"?xt=urn:btih:0434b1b1db480993a012da3172a102ae2e25fa07&amp;dn=Revolution+S02E08+-+720p+x264+%5BMKV%2CAC3%2C5.1%5D+Ehhhh&amp;tr=udp%3A%2F%2Ftracker.openbittorrent.com%3A80&amp;tr=udp%3A%2F%2Fopen.demonii.com%3A1337&amp;tr=udp%3A%2F%2Ftracker.coppersurfer.tk%3A6969&amp;tr=udp%3A%2F%2Fexodus.desync.com%3A6969","seeders":1,"leechers":4,"uploader":"mynameisurlz","files":-1,"time":1384439970,"description":"As Miles and the gang try to escape the perils of their current situation, Rachel and Gene continue to struggle with their relationship, which affects Charlie. Meanwhile, Neville takes a gamble with the Patriots. \n\nGeneral\nFormat                                   : Matroska\nFormat version                           : Version 4 / Version 2\nFile size                                : 423 MiB\nDuration                                 : 42mn 12s\nOverall bit rate                         : 1 402 Kbps\nEncoded date                             : UTC 2013-11-14 10:35:15\nWriting application                      : mkvmerge v6.2.0 ('Promised Land') built on Apr 28 2013 12:22:01\nWriting library                          : libebml v1.3.0 + libmatroska v1.4.0\n\nVideo\nID                                       : 1\nFormat                                   : AVC\nFormat/Info                              : Advanced Video Codec\nFormat profile                           : &lt;a class=&quot;__cf_email__&quot; href=&quot;/cdn-cgi/l/email-protection&quot; data-cfemail=&quot;b3fbdad4dbf3ff879d82&quot;&gt;[email&amp;#160;protected]&lt;/a&gt;&lt;script cf-hash='f9e31' type=&quot;text/javascript&quot;&gt;\n/* &lt;![CDATA[ */!function(){try{var t=&quot;currentScript&quot;in document?document.currentScript:function(){for(var t=document.getElementsByTagName(&quot;script&quot;),e=t.length;e--;)if(t[e].getAttribute(&quot;cf-hash&quot;))return t[e]}();if(t&amp;&amp;t.previousSibling){var e,r,n,i,c=t.previousSibling,a=c.getAttribute(&quot;data-cfemail&quot;);if(a){for(e=&quot;&quot;,r=parseInt(a.substr(0,2),16),n=2;a.length-n;n+=2)i=parseInt(a.substr(n,2),16)^r,e+=String.fromCharCode(i);e=document.createTextNode(e),c.parentNode.replaceChild(e,c)}}}catch(u){}}();/* ]]&gt; */&lt;/script&gt;\nFormat settings, CABAC                   : Yes\nFormat settings, ReFrames                : 14 frames\nCodec ID                                 : V_MPEG4/ISO/AVC\nDuration                                 : 42mn 12s\nBit rate                                 : 1 010 Kbps\nWidth                                    : 1 280 pixels\nHeight                                   : 720 pixels\nDisplay aspect ratio                     : 16:9\nFrame rate mode                          : Constant\nFrame rate                               : 23.976 fps\nColor space                              : YUV\nChroma subsampling                       : 4:2:0\nBit depth                                : 8 bits\nScan type                                : Progressive\nBits/(Pixel*Frame)                       : 0.046\nStream size                              : 299 MiB (71%)\nWriting library                          : x264 core 138 r2359+704+48 3f879a0 tMod [8-bit@all X86]\nDefault                                  : Yes\nForced                                   : No\n\nAudio\nID                                       : 2\nFormat                                   : AC-3\nFormat/Info                              : Audio Coding 3\nMode extension                           : CM (complete main)\nFormat settings, Endianness              : Big\nCodec ID                                 : A_AC3\nDuration                                 : 42mn 12s\nBit rate mode                            : Constant\nBit rate                                 : 384 Kbps\nChannel(s)                               : 6 channels\nChannel positions                        : Front: L C R, Side: L R, LFE\nSampling rate                            : 48.0 KHz\nBit depth                                : 16 bits\nCompression mode                         : Lossy\nStream size                              : 116 MiB (27%)\nDefault                                  : Yes\nForced                                   : No\n\n","torrent":{"xt":"urn:btih:0434b1b1db480993a012da3172a102ae2e25fa07","amp;dn":"Revolution+S02E08+-+720p+x264+%5BMKV%2CAC3%2C5.1%5D+Ehhhh","amp;tr":["udp%3A%2F%2Ftracker.openbittorrent.com%3A80","udp%3A%2F%2Fopen.demonii.com%3A1337","udp%3A%2F%2Ftracker.coppersurfer.tk%3A6969","udp%3A%2F%2Fexodus.desync.com%3A6969"],"infoHash":"0434b1b1db480993a012da3172a102ae2e25fa07","infoHashBuffer":{"type":"Buffer","data":[4,52,177,177,219,72,9,147,160,18,218,49,114,161,2,174,46,37,250,7]},"announce":[],"urlList":[]}}